<?xml version="1.0" standalone="no"?>
<!DOCTYPE svg PUBLIC "-//W3C//DTD SVG 20010904//EN"
 "http://www.w3.org/TR/2001/REC-SVG-20010904/DTD/svg10.dtd">
<svg version="1.0" xmlns="http://www.w3.org/2000/svg"
 width="192.000000pt" height="192.000000pt" viewBox="0 0 192.000000 192.000000"
 preserveAspectRatio="xMidYMid meet">
<metadata>
Created by potrace 1.14, written by Peter Selinger 2001-2017
</metadata>
<g transform="translate(0.000000,192.000000) scale(0.100000,-0.100000)"
fill="#000000" stroke="none">
<path d="M910 1889 c-78 -37 -140 -60 -140 -52 0 3 -7 0 -15 -7 -8 -7 -15 -9
-15 -6 0 4 -26 -7 -57 -24 -60 -31 -99 -76 -106 -120 -4 -26 -6 -26 -84 -16
-41 6 -42 -5 -3 -22 29 -13 34 -37 5 -25 -8 3 -15 0 -15 -7 0 -6 4 -9 8 -6 4
2 13 -4 20 -15 13 -20 6 -24 -38 -21 -9 0 -27 -25 -45 -61 -22 -47 -29 -75
-28 -117 1 -64 10 -138 20 -160 3 -8 8 -28 10 -44 4 -23 1 -27 -11 -23 -18 7
-45 -17 -47 -41 -3 -47 10 -87 68 -201 18 -35 33 -70 33 -77 0 -23 40 -56 60
-51 15 4 23 -5 36 -42 9 -25 21 -59 27 -75 6 -16 41 -60 78 -96 l67 -67 -33
-16 c-37 -18 -64 -39 -139 -110 -46 -44 -106 -85 -106 -73 0 7 -91 -25 -240
-85 -124 -50 -130 -54 -148 -93 -11 -23 -22 -62 -25 -89 l-6 -47 918 0 c892 0
919 1 924 19 2 10 1 25 -4 32 -5 8 -9 25 -9 39 0 31 -34 89 -58 96 -9 4 -30
12 -47 19 -74 33 -187 75 -265 99 -75 24 -92 34 -145 85 -71 69 -144 123 -156
115 -26 -16 -2 17 44 61 69 65 90 97 111 170 16 55 20 60 47 61 34 1 39 5 44
31 2 10 4 19 5 21 2 1 3 5 4 10 6 21 30 62 38 62 4 0 8 8 8 18 0 9 11 41 25
71 23 49 30 80 26 123 -1 16 -36 35 -54 30 -5 -1 -6 5 -3 15 3 10 7 29 10 43
3 14 9 39 13 55 3 17 7 79 9 140 1 98 0 112 -18 127 -18 15 -18 18 -3 47 8 17
19 31 24 31 4 0 8 6 8 14 0 11 -6 11 -35 -1 -40 -16 -48 -13 -33 15 16 29 14
34 -9 22 -16 -9 -22 -6 -36 22 -9 18 -32 47 -51 65 -29 27 -33 35 -23 52 10
19 9 20 -15 11 -15 -6 -31 -10 -37 -10 -11 0 36 67 62 87 8 7 12 13 8 13 -11
0 -92 -32 -98 -40 -3 -3 -17 -13 -33 -23 -35 -22 -32 -4 5 38 30 32 23 44 -13
25 -15 -8 -19 -9 -15 -1 5 7 -8 11 -39 11 -36 0 -51 -5 -69 -25 -28 -30 -41
-33 -26 -6 21 40 -10 31 -56 -15 -26 -26 -44 -38 -39 -28 4 11 10 28 13 39 3
11 10 23 16 27 31 21 -48 3 -104 -23z"/>
</g>
</svg>
